HIERARCHY
ROOT Hips
{
	OFFSET 0.000000 89.005402 0.000000
	CHANNELS 6 Xposition Yposition Zposition Xrotation Yrotation Zrotation
	JOINT Spine
	{
		OFFSET 0.116900 10.681000 0.373400
		CHANNELS 3 Xrotation Yrotation Zrotation
		JOINT Spine1
		{
			OFFSET 0.000000 13.840401 0.053500
			CHANNELS 3 Xrotation Yrotation Zrotation
			JOINT Spine2
			{
				OFFSET 0.000000 14.712700 -0.366200
				CHANNELS 3 Xrotation Yrotation Zrotation
				JOINT Neck
				{
					OFFSET 0.000000 35.415497 -3.314200
					CHANNELS 3 Xrotation Yrotation Zrotation
					JOINT Head
					{
						OFFSET 0.000000 16.899200 1.218300
						CHANNELS 3 Xrotation Yrotation Zrotation
						JOINT HeadTop_End
						{
							OFFSET 0.000000 22.206207 2.192500
							CHANNELS 3 Xrotation Yrotation Zrotation
							End Site
							{
								OFFSET 0.000000 22.314178 0.000000
							}
						}
					}
				}
				JOINT LeftShoulder
				{
					OFFSET 12.896400 26.716293 -4.548400
					CHANNELS 3 Xrotation Yrotation Zrotation
					JOINT LeftArm
					{
						OFFSET 19.027000 -4.857010 -1.718400
						CHANNELS 3 Xrotation Yrotation Zrotation
						JOINT LeftForeArm
						{
							OFFSET 24.179897 0.000000 0.000000
							CHANNELS 3 Xrotation Yrotation Zrotation
							JOINT LeftHand
							{
								OFFSET 27.156403 0.000000 0.000000
								CHANNELS 3 Xrotation Yrotation Zrotation
								JOINT LeftHandIndex1
								{
									OFFSET 16.441200 0.000000 0.000000
									CHANNELS 3 Xrotation Yrotation Zrotation
									JOINT LeftHandIndex2
									{
										OFFSET 4.821899 0.000000 0.000000
										CHANNELS 3 Xrotation Yrotation Zrotation
										JOINT LeftHandIndex3
										{
											OFFSET 6.386497 0.000000 0.000000
											CHANNELS 3 Xrotation Yrotation Zrotation
											JOINT LeftHandIndex4
											{
												OFFSET 5.188988 0.000000 0.000000
												CHANNELS 3 Xrotation Yrotation Zrotation
												End Site
												{
													OFFSET -0.178703 5.185913 0.000177
												}
											}
										}
									}
								}
								JOINT LeftHandThumb1
								{
									OFFSET 6.534897 -5.032593 5.900300
									CHANNELS 3 Xrotation Yrotation Zrotation
									JOINT LeftHandThumb2
									{
										OFFSET 3.818176 -2.204422 2.204423
										CHANNELS 3 Xrotation Yrotation Zrotation
										JOINT LeftHandThumb3
										{
											OFFSET 3.252098 -1.877594 1.877601
											CHANNELS 3 Xrotation Yrotation Zrotation
											JOINT LeftHandThumb4
											{
												OFFSET 5.251778 -3.032120 3.032117
												CHANNELS 3 Xrotation Yrotation Zrotation
												End Site
												{
													OFFSET 0.000023 6.780014 0.000000
												}
											}
										}
									}
								}
							}
						}
					}
				}
				JOINT RightShoulder
				{
					OFFSET -12.896300 26.716293 -4.548400
					CHANNELS 3 Xrotation Yrotation Zrotation
					JOINT RightArm
					{
						OFFSET -19.027000 -4.857010 -1.718400
						CHANNELS 3 Xrotation Yrotation Zrotation
						JOINT RightForeArm
						{
							OFFSET -24.179897 0.000000 0.000000
							CHANNELS 3 Xrotation Yrotation Zrotation
							JOINT RightHand
							{
								OFFSET -27.156403 0.000000 0.000000
								CHANNELS 3 Xrotation Yrotation Zrotation
								JOINT RightHandThumb1
								{
									OFFSET -6.591202 -4.852203 5.988100
									CHANNELS 3 Xrotation Yrotation Zrotation
									JOINT RightHandThumb2
									{
										OFFSET -3.818176 -2.204422 2.204423
										CHANNELS 3 Xrotation Yrotation Zrotation
										JOINT RightHandThumb3
										{
											OFFSET -3.252098 -1.877594 1.877601
											CHANNELS 3 Xrotation Yrotation Zrotation
											JOINT RightHandThumb4
											{
												OFFSET -5.251778 -3.032120 3.032117
												CHANNELS 3 Xrotation Yrotation Zrotation
												End Site
												{
													OFFSET -0.000023 6.780014 0.000000
												}
											}
										}
									}
								}
								JOINT RightHandIndex1
								{
									OFFSET -16.029404 0.000000 0.000000
									CHANNELS 3 Xrotation Yrotation Zrotation
									JOINT RightHandIndex2
									{
										OFFSET -5.213303 0.000000 0.000000
										CHANNELS 3 Xrotation Yrotation Zrotation
										JOINT RightHandIndex3
										{
											OFFSET -6.386528 0.000000 0.000000
											CHANNELS 3 Xrotation Yrotation Zrotation
											JOINT RightHandIndex4
											{
												OFFSET -5.189026 0.000000 0.000000
												CHANNELS 3 Xrotation Yrotation Zrotation
												End Site
												{
													OFFSET 0.236702 5.183624 0.001972
												}
											}
										}
									}
								}
							}
						}
					}
				}
			}
		}
	}
	JOINT LeftUpLeg
	{
		OFFSET 14.073000 -7.904099 -1.463000
		CHANNELS 3 Xrotation Yrotation Zrotation
		JOINT LeftLeg
		{
			OFFSET -0.109806 -34.073280 4.093200
			CHANNELS 3 Xrotation Yrotation Zrotation
			JOINT LeftFoot
			{
				OFFSET 0.109806 -29.899420 -6.319000
				CHANNELS 3 Xrotation Yrotation Zrotation
				JOINT LeftToeBase
				{
					OFFSET 1.551100 -14.988700 20.535801
					CHANNELS 3 Xrotation Yrotation Zrotation
					JOINT LeftToe_End
					{
						OFFSET 0.221200 0.570800 13.248301
						CHANNELS 3 Xrotation Yrotation Zrotation
						End Site
						{
							OFFSET 0.000000 13.262435 0.000000
						}
					}
				}
			}
		}
	}
	JOINT RightUpLeg
	{
		OFFSET -13.839300 -7.904099 -1.463000
		CHANNELS 3 Xrotation Yrotation Zrotation
		JOINT RightLeg
		{
			OFFSET 0.109694 -34.073219 4.093300
			CHANNELS 3 Xrotation Yrotation Zrotation
			JOINT RightFoot
			{
				OFFSET -0.109694 -29.899384 -6.319200
				CHANNELS 3 Xrotation Yrotation Zrotation
				JOINT RightToeBase
				{
					OFFSET -1.551100 -14.988700 20.535801
					CHANNELS 3 Xrotation Yrotation Zrotation
					JOINT RightToe_End
					{
						OFFSET -0.221200 0.570900 13.248299
						CHANNELS 3 Xrotation Yrotation Zrotation
						End Site
						{
							OFFSET 0.000000 13.262440 0.000000
						}
					}
				}
			}
		}
	}
}
MOTION
Frames: 8
Frame Time: 0.033333
-50.890469 83.479164 98.228096 0.025437 63.650027 -0.758219 5.338479 3.536848 5.128639 3.564480 1.861124 1.541064 3.626161 1.727341 1.557366 -2.332212 -0.663510 -0.493992 -9.739928 -3.124116 -3.433909 -0.000000 -0.000003 0.000000 -2.914427 -12.934757 -11.458082 14.326281 -30.829210 -54.075267 6.029097 -90.042261 6.034216 -10.352611 7.282534 6.084721 0.370239 4.293094 -23.987752 0.399230 2.127435 -21.253855 0.253878 1.707552 -16.912377 -0.000000 0.000000 0.000003 -15.720613 1.069169 -1.645642 10.211806 15.613826 6.649961 -5.915702 -21.273907 9.327678 -0.000000 -0.000001 0.000001 1.417892 2.325108 14.759313 -1.476676 -10.886875 60.601523 -0.000003 42.413388 0.000007 93.345108 -2.029129 -7.016490 -10.240318 -8.280859 -10.867791 4.194140 -19.980417 -3.880528 -1.401760 0.148336 -7.537777 -0.000003 0.000003 0.000001 4.247115 -12.827444 23.411460 4.233597 -4.637915 84.775994 0.392884 -1.873930 23.680071 0.000002 0.000001 0.000001 -8.476202 8.221012 0.048777 54.218158 6.743835 -1.336518 -9.847541 -1.074363 -2.324340 -37.478768 -2.203095 0.432989 0.000000 -0.000000 0.000000 -24.177968 -7.479083 6.709791 26.837973 -7.315658 -0.473620 -4.639096 1.032812 -6.535112 -5.262594 0.000018 0.000002 0.000000 0.000001 0.000000 
-52.676353 83.384888 97.584122 -0.037491 64.706637 -0.856997 4.590953 3.030573 4.963490 3.216004 1.634636 1.528743 3.265907 1.510236 1.551865 -2.512745 -0.679439 -0.628520 -8.583478 -3.321118 -3.157543 0.000000 0.000001 0.000000 -2.978622 -12.913643 -11.386324 14.299081 -32.415511 -54.155771 0.071302 -89.431772 0.071126 -9.113229 6.138481 6.050884 0.344832 4.236758 -24.018478 0.424191 2.190508 -21.916713 0.256178 1.715135 -16.989739 0.000000 -0.000000 -0.000003 -15.663652 0.985600 -1.606437 10.134073 15.824286 6.717109 -5.850030 -20.993608 9.417689 -0.000000 0.000002 0.000003 2.050333 0.221464 14.293779 -0.600354 -12.109745 61.583540 0.000008 43.000354 0.000010 91.425415 -2.050926 -4.484975 -10.901603 -7.593658 -11.386669 3.636121 -19.011002 -4.068662 -1.459992 0.366950 -8.096217 -0.000002 -0.000002 -0.000002 4.290009 -13.652249 21.742142 4.448763 -4.652515 87.432411 0.483788 -2.068741 26.322145 0.000001 -0.000000 0.000001 -3.161708 9.470985 -1.272221 51.707954 3.387663 -0.172658 -11.837888 -1.333331 -2.522118 -36.618652 -4.840380 3.078998 -0.000000 -0.000001 -0.000000 -25.203719 -7.520526 6.700347 25.594841 -8.296945 -0.256709 -2.616164 0.944809 -6.987848 -4.977673 -0.000003 -0.000005 -0.000000 0.000002 -0.000000 
-54.509323 83.356949 96.901558 -0.072825 65.665493 -0.863854 3.933993 2.415529 4.681693 2.880025 1.360907 1.449729 2.918234 1.246268 1.471976 -2.245850 -0.691478 -0.545025 -7.962421 -3.221367 -3.021923 0.000000 0.000000 0.000000 -3.020474 -12.972196 -11.450402 14.279817 -33.315576 -54.125435 0.013120 -89.085604 0.013171 -7.958801 5.006760 6.106705 0.310636 4.162522 -24.107730 0.470260 2.301646 -23.092453 0.258500 1.722703 -17.066891 0.000001 0.000002 0.000001 -15.604547 0.902663 -1.564435 10.068773 16.199289 6.873458 -5.722758 -20.463665 9.616339 0.000001 0.000001 0.000004 2.445489 -1.454674 13.826801 0.193356 -12.914061 62.765176 -0.000000 43.267957 0.000024 90.379700 -3.200640 -1.596454 -12.307040 -6.979973 -12.633479 3.551217 -18.530259 -3.375651 -1.599487 0.770816 -9.769082 -0.000000 -0.000002 -0.000002 4.584233 -14.243548 21.995315 4.586062 -4.656626 89.124079 0.546318 -2.190533 28.004966 -0.000001 0.000001 -0.000000 1.971916 10.224058 -2.707047 47.677271 0.666822 0.786516 -14.209045 -1.934828 -1.472199 -33.821051 -5.876139 4.732432 0.000000 -0.000002 0.000000 -26.104612 -7.484590 6.557387 23.953011 -9.171691 -0.087702 -0.369958 0.817448 -7.410441 -4.614434 -0.000007 -0.000003 -0.000000 -0.000002 -0.000000 
-56.356808 83.446716 96.248100 -0.245080 66.548425 -0.671021 3.481483 1.671402 4.323089 2.623431 0.963687 1.371493 2.646711 0.860667 1.391222 -2.128060 -0.550972 -0.663752 -7.426467 -2.890600 -2.748456 0.000000 -0.000001 -0.000000 -3.040194 -12.495184 -11.901788 14.349140 -33.681299 -53.716497 0.018035 -89.191035 0.018064 -7.332113 3.966819 6.345939 0.265785 4.065343 -24.200897 0.518615 2.411794 -24.268173 0.260819 1.730216 -17.143848 0.000001 0.000001 -0.000002 -15.543349 0.820326 -1.519706 9.986551 16.568055 7.064755 -5.599509 -19.935089 9.829294 -0.000002 -0.000000 -0.000003 2.745131 -2.834748 13.303649 0.736661 -13.099749 64.062421 -0.000004 43.250622 -0.000006 90.680576 -5.123492 1.241958 -14.507959 -6.938642 -15.181583 4.395516 -19.330250 -1.084560 -1.797290 1.627502 -13.074714 -0.000003 0.000001 -0.000002 5.113049 -14.774427 23.406432 4.568325 -4.656331 88.905608 0.538040 -2.174905 27.787624 0.000000 0.000001 0.000001 6.944953 10.176332 -4.328831 41.535866 -0.122150 1.407334 -16.431543 -2.957853 1.148464 -30.381429 -5.051814 3.819612 -0.000000 -0.000002 0.000000 -26.664469 -7.400591 6.495362 22.053011 -10.115163 -0.035661 1.173250 0.826086 -8.036917 -4.194514 0.000013 -0.000000 0.000000 0.000001 0.000000 
-58.302444 83.604378 95.593948 -0.382233 67.353575 -0.337294 3.173657 0.989373 3.795204 2.434987 0.588187 1.214295 2.445946 0.497438 1.228828 -2.038146 -0.431943 -0.709076 -7.114316 -2.593306 -2.422813 -0.000000 0.000001 -0.000000 -2.980782 -12.115191 -12.210269 13.952990 -33.392658 -53.562159 0.198046 -89.703046 0.198342 -7.233114 3.108952 6.662772 0.213318 3.952221 -24.297413 0.569213 2.520922 -25.443872 0.263142 1.737727 -17.220601 0.000001 0.000000 -0.000002 -15.480053 0.738621 -1.472258 9.892485 16.932128 7.282440 -5.478452 -19.407098 10.052588 -0.000001 0.000000 0.000001 3.005812 -4.213357 12.794587 0.778502 -13.735052 65.662912 -0.000001 42.956634 -0.000003 91.756386 -6.905258 3.727803 -15.183975 -7.674143 -16.139713 4.156447 -18.608765 -1.047181 -1.999946 1.095938 -14.048973 -0.000002 -0.000001 -0.000000 6.235290 -16.357000 25.076556 4.693852 -4.657034 90.451738 0.597897 -2.284815 29.325899 -0.000000 -0.000003 -0.000002 11.067526 9.561109 -5.727014 34.090229 0.650451 1.625289 -18.169632 -3.833219 3.547159 -26.433713 -3.790424 1.441282 -0.000000 -0.000002 -0.000000 -27.127570 -7.249373 6.423958 19.963075 -11.010009 -0.076920 2.216536 0.829314 -8.910092 -3.480178 0.000012 -0.000005 0.000000 0.000002 0.000000 
-60.400841 83.668877 94.869667 -0.489240 68.100900 0.151305 3.009241 0.533312 3.088283 2.313803 0.329197 0.999090 2.317528 0.254564 1.008516 -1.848053 -0.410931 -0.728771 -7.172830 -2.568889 -2.003846 0.000000 -0.000002 0.000000 -2.981841 -12.194698 -12.152956 12.842688 -32.538441 -54.061699 0.134744 -90.442100 0.134459 -7.281584 2.405848 6.886798 0.156291 3.830140 -24.396703 0.622052 2.628973 -26.619552 0.265479 1.745202 -17.297147 -0.000000 -0.000003 0.000006 -15.414658 0.657542 -1.422096 9.791626 17.293033 7.517696 -5.358719 -18.878677 10.282118 0.000001 0.000001 0.000001 3.331649 -5.654491 12.209872 0.229851 -15.800596 67.591279 0.000005 42.501955 -0.000011 91.887232 -7.983478 5.538366 -14.703046 -8.617059 -15.758937 3.861260 -18.325210 -1.034874 -2.222949 0.074829 -14.307648 0.000002 -0.000002 -0.000001 5.959236 -15.708692 25.213146 4.563703 -4.656239 88.848836 0.535901 -2.170846 27.731142 0.000000 0.000001 0.000001 13.134822 8.861357 -6.126509 28.464323 1.309932 1.425721 -20.377198 -3.493407 3.196935 -20.930681 -3.836907 0.603872 0.000000 0.000002 0.000000 -28.163879 -7.097828 6.004993 18.588826 -10.980433 -0.186549 3.288900 -0.152349 -8.957159 -2.702984 0.000029 0.000006 0.000001 0.000004 0.000000 
-62.598507 83.649796 94.077896 -0.801409 68.775046 1.243563 3.080663 0.276636 2.026119 2.316629 0.193115 0.711219 2.317782 0.136563 0.716981 -1.964627 -0.432480 -0.833693 -7.308109 -2.853986 -1.402838 0.000000 0.000001 0.000000 -3.080023 -12.227849 -12.127970 11.374825 -31.547872 -54.573440 0.008576 -91.245132 0.008512 -7.087213 1.794260 6.895425 0.097834 3.706084 -24.498121 0.677050 2.735879 -27.795243 0.267798 1.752669 -17.373498 -0.000000 -0.000003 0.000004 -15.347230 0.577080 -1.369266 9.689076 17.652381 7.761680 -5.240171 -18.348620 10.513508 0.000000 -0.000000 0.000001 3.798970 -7.313776 12.047659 -0.925803 -18.550500 68.950657 0.000013 41.771828 -0.000018 89.505791 -8.481599 6.435832 -14.325999 -9.162854 -15.175690 3.303503 -17.426234 -1.539085 -2.450387 -1.171558 -14.377772 -0.000000 -0.000001 -0.000001 5.787973 -15.238914 25.443802 4.480555 -4.653833 87.824382 0.497948 -2.097123 26.711975 -0.000001 0.000002 0.000003 14.515682 8.152708 -6.955336 23.203652 1.578880 1.014510 -21.819391 -3.102305 3.250249 -15.519402 -3.047904 0.195670 0.000000 -0.000000 0.000000 -29.934773 -6.824088 4.827965 18.500869 -11.022715 -0.295165 4.035153 -0.997468 -7.927847 -2.062168 0.000001 -0.000005 -0.000001 0.000001 -0.000000 
-64.926323 83.423965 93.167282 -1.273532 69.741805 2.863842 3.326508 -0.132752 0.696957 2.386821 0.049770 0.410785 2.386399 0.013507 0.412485 -2.138416 -0.391922 -1.253985 -7.613509 -3.393169 -0.571355 0.000000 -0.000003 -0.000000 -3.053580 -12.229309 -12.173133 9.352523 -30.298354 -55.268398 0.002419 -91.916622 0.002311 -6.583864 1.311561 6.647117 0.041056 3.587001 -24.601115 0.734267 2.841619 -28.970937 0.270136 1.760119 -17.449646 -0.000001 -0.000001 0.000003 -15.277742 0.497277 -1.313795 9.589941 18.011771 8.005318 -5.122400 -17.815818 10.742466 -0.000000 0.000000 0.000003 4.144777 -8.854843 11.875128 -2.254199 -21.704681 70.056205 0.000011 40.912304 -0.000011 85.977260 -8.522267 6.738736 -13.941675 -9.142242 -14.408646 2.637974 -16.370828 -2.177104 -2.634534 -2.446266 -14.260601 0.000000 -0.000001 0.000001 6.047349 -15.585240 25.824730 4.428393 -4.651561 87.181218 0.474813 -2.050497 26.072217 -0.000001 0.000002 -0.000001 14.722283 6.928456 -8.193282 19.674020 1.606198 0.641359 -22.807520 -2.832701 3.723882 -12.491542 -2.128666 1.773335 -0.000000 0.000000 0.000000 -32.756631 -6.714408 2.891227 20.483386 -10.936065 -0.441422 3.377879 -1.733914 -6.176391 -1.795524 0.000012 0.000004 -0.000001 -0.000004 -0.000000 
